<?xml version="1.0" encoding="UTF-8"?>
<!DOCTYPE svg PUBLIC "-//W3C//DTD SVG 1.1//EN" "http://www.w3.org/Graphics/SVG/1.1/DTD/svg11.dtd">
<!-- Creator: CorelDRAW 2018 (64-Bit Evaluation Version) -->
<svg xmlns="http://www.w3.org/2000/svg" xml:space="preserve" width="53.6376mm" height="10.0473mm" version="1.1" style="shape-rendering:geometricPrecision; text-rendering:geometricPrecision; image-rendering:optimizeQuality; fill-rule:evenodd; clip-rule:evenodd"
viewBox="0 0 1356.82 254.16"
 xmlns:xlink="http://www.w3.org/1999/xlink">
 <defs>
  <style type="text/css">
   <![CDATA[
    .fil1 {fill:white}
    .fil0 {fill:white;fill-rule:nonzero}
   ]]>
  </style>
 </defs>
 <g id="Layer_x0020_1">
  <metadata id="CorelCorpID_0Corel-Layer"/>
  <g id="_698536690640">
   <path class="fil0" d="M69.82 0.01c-21.21,0 -38.16,7.54 -50.93,22.61 -12.59,15.07 -18.9,35.17 -18.9,60.3 0,25.69 6.28,45.94 18.87,60.71 12.45,14.82 29.37,22.2 50.82,22.2 12.55,0 23.34,-2.68 32.35,-8.04 8.68,-4.99 15.32,-12.39 19.89,-22.16l0 20.65c0,2.18 0.63,3.9 1.87,5.18 1.27,1.15 2.8,1.73 4.61,1.73 1.67,0 3.15,-0.58 4.4,-1.73 1.39,-1.28 2.1,-3.01 2.1,-5.18l0 -66.73c0,-2.76 -0.78,-5.03 -2.34,-6.91 -1.67,-2.02 -3.94,-3.01 -6.84,-3.01l-49.9 0c-3.86,0 -5.81,2.02 -5.81,6.06 0,4.04 1.91,6.06 5.77,6.06l46.15 0c0,21.79 -5.4,37.99 -16.17,48.62 -9.08,8.89 -21.1,13.34 -36.03,13.34 -17.52,0 -31.21,-5.81 -40.99,-17.42 -10.36,-12.2 -15.54,-29.99 -15.54,-53.35 0,-22.82 5.18,-40.46 15.57,-52.92 10,-11.9 23.69,-17.86 41.14,-17.86 13.44,0 24.4,2.79 32.84,8.37 8.58,5.85 14,14.37 16.21,25.5 0.28,2.17 1.31,3.75 3.09,4.74 1.52,0.99 3.18,1.36 4.96,1.06 1.92,-0.29 3.45,-1.18 4.54,-2.6 1.1,-1.54 1.46,-3.5 1.03,-5.77 -2.77,-12.35 -8.66,-22.24 -17.66,-29.7 -11.21,-9.15 -26.24,-13.75 -45.08,-13.75l-0.04 0.01zm120.44 3.53c-6.35,0 -11.34,2.17 -14.94,6.47 -3.18,3.9 -4.78,8.68 -4.78,14.44l0 134.05c0,2.28 0.64,4.08 1.88,5.37 1.27,1.28 2.8,1.94 4.61,1.94 1.67,0 3.15,-0.66 4.4,-1.94 1.39,-1.29 2.1,-3.09 2.1,-5.37l0 -68.09 53.66 0c6.64,0 12.2,1.65 16.78,4.97 4.97,3.46 7.44,8.19 7.44,14.22 0,10.76 0.43,20.39 1.24,28.85 1.1,9.63 2.7,17.3 4.78,23.03 0.71,1.88 1.95,3.16 3.77,3.9 1.67,0.58 3.33,0.58 5,0 1.78,-0.74 3.11,-1.87 3.94,-3.46 0.82,-1.87 0.82,-3.93 0,-6.25 -1.78,-5.19 -3.15,-11.5 -4.11,-18.96 -0.96,-8.2 -1.42,-17.89 -1.42,-29.11 0,-7.01 -2.16,-12.72 -6.45,-17.01 -3.58,-3.75 -7.73,-5.81 -12.45,-6.25 7.49,-2.72 13.44,-7.38 17.88,-14 4.36,-6.76 6.56,-14.51 6.56,-23.27 0,-11.65 -3.58,-21.65 -10.78,-29.99 -8.05,-9.05 -18.76,-13.56 -32.16,-13.56l-46.92 0 -0.03 0.01zm158.74 6.62l-51.35 145.98c-0.96,2.31 -1.03,4.29 -0.17,6.02 0.81,1.73 2.06,2.87 3.73,3.45 1.67,0.59 3.26,0.45 4.78,-0.44 1.8,-0.99 3.13,-2.58 3.94,-4.74l17.66 -50.16 66.71 0 17.45 50.16c0.84,2.18 2.09,3.75 3.76,4.74 1.67,0.74 3.3,0.81 4.97,0.21 1.67,-0.58 2.83,-1.65 3.54,-3.23 0.82,-1.87 0.88,-3.87 0.21,-6.02l-51.53 -145.98c-1.14,-3.3 -2.77,-5.84 -5.01,-7.57 -2.09,-1.57 -4.29,-2.35 -6.63,-2.35 -2.66,0 -5,0.78 -7.09,2.35 -2.19,1.73 -3.86,4.26 -4.97,7.57l0 0zm161.68 -6.62l-41.35 0c-6.35,0 -11.34,2.17 -14.93,6.47 -3.19,3.9 -4.78,8.68 -4.78,14.44l0 134.46c0,2.17 0.64,3.9 1.88,5.19 1.27,1.14 2.8,1.73 4.61,1.73 1.67,0 3.15,-0.58 4.4,-1.73 1.39,-1.28 2.1,-3.01 2.1,-5.19l0 -66.29 48.13 0c13.4,0 24.08,-4.66 31.96,-14 7.2,-8.35 10.78,-18.49 10.78,-30.43 0,-12.24 -3.58,-22.49 -10.78,-30.84 -7.91,-9.23 -18.59,-13.81 -31.99,-13.81l-0.01 0zm169.91 0l-75.78 0c-6.35,0 -11.35,2.17 -14.94,6.47 -3.19,3.86 -4.78,8.68 -4.78,14.44l0 116.94c0,5.63 1.59,10.37 4.78,14.22 3.58,4.29 8.58,6.47 14.96,6.47l78.52 0c2.06,0 3.73,-0.66 4.97,-1.95 1.11,-1.18 1.67,-2.54 1.67,-4.12 0,-1.73 -0.56,-3.16 -1.67,-4.33 -1.24,-1.15 -2.91,-1.73 -4.97,-1.73l-76.18 0c-3.02,0 -5.39,-0.99 -7.02,-3.01 -1.39,-1.69 -2.1,-3.86 -2.1,-6.43l0 -54.28 75.29 0c2.06,0 3.73,-0.66 4.97,-1.95 1.11,-1.18 1.67,-2.54 1.67,-4.12 0,-1.73 -0.56,-3.16 -1.67,-4.33 -1.24,-1.14 -2.91,-1.73 -4.97,-1.73l-75.29 0 0 -48.73c0,-2.72 0.71,-4.96 2.1,-6.68 1.63,-2.02 4.01,-3.01 7.02,-3.01l73.42 0c1.92,0 3.51,-0.66 4.76,-1.95 1.11,-1.18 1.67,-2.54 1.67,-4.12 0,-1.73 -0.57,-3.16 -1.67,-4.33 -1.24,-1.14 -2.83,-1.73 -4.76,-1.73l0 -0.02zm22.87 5.51l39.9 149.24c1.28,4.89 3.9,7.38 7.91,7.54 4.01,0 6.85,-2.5 8.51,-7.54l33.87 -134.58 34.08 134.36c1.24,5.19 3.9,7.75 7.91,7.75 4.15,0 6.85,-2.57 8.08,-7.75l39.9 -149.02c0.43,-2.28 0.15,-4.3 -0.82,-6.03 -0.96,-1.43 -2.34,-2.35 -4.15,-2.79 -1.81,-0.45 -3.41,-0.22 -4.78,0.66 -1.81,0.99 -2.91,2.64 -3.34,4.93l-35.33 130.28 -32.2 -128.99c-1.24,-4.74 -4.44,-7.09 -9.54,-7.09 -5,0 -8.12,2.35 -9.37,7.09l-32.2 128.99 -35.74 -130.9c-0.56,-2.02 -1.59,-3.46 -3.13,-4.3 -1.52,-0.89 -3.13,-1.11 -4.78,-0.66 -1.8,0.29 -3.19,1.14 -4.15,2.57 -0.96,1.73 -1.17,3.82 -0.64,6.25l0 -0.01zm266.87 -9.05c-22.84,0 -40.5,8.45 -52.95,25.4 -10.82,15.11 -16.21,34.25 -16.21,57.51 0,23.27 5.4,42.34 16.21,57.3 12.45,17.09 30.1,25.61 52.95,25.61 22.7,0 40.28,-8.52 52.77,-25.61 11.06,-14.96 16.59,-34.03 16.59,-57.3 0,-23.26 -5.53,-42.4 -16.59,-57.51 -12.48,-16.94 -30.08,-25.4 -52.77,-25.4l0 0zm163.74 0c-22.84,0 -40.51,8.45 -52.95,25.4 -10.82,15.11 -16.21,34.25 -16.21,57.51 0,23.27 5.4,42.34 16.21,57.3 12.44,17.09 30.1,25.61 52.95,25.61 22.7,0 40.28,-8.52 52.77,-25.61 11.06,-14.96 16.6,-34.03 16.6,-57.3 0,-23.26 -5.53,-42.4 -16.6,-57.51 -12.48,-16.94 -30.07,-25.4 -52.77,-25.4l0 0zm121.53 3.53c-6.35,0 -11.35,2.17 -14.94,6.47 -3.19,3.86 -4.78,8.68 -4.78,14.44l0 116.94c0,5.63 1.59,10.37 4.78,14.22 3.58,4.29 8.58,6.47 14.94,6.47l29.72 0c22.7,0 40.5,-7.91 53.38,-23.7 12.02,-14.48 18.05,-33.04 18.05,-55.57 0,-22.57 -6.03,-41.08 -18.05,-55.57 -12.88,-15.81 -30.68,-23.7 -53.38,-23.7l-29.72 0 0 -0.01z"/>
   <path class="fil1" d="M833.77 182.41l521.25 0 0 69.87 -521.25 0 0 -69.87 0 0zm-1.8 -1.87l524.85 0 0 73.61 -524.85 0 0 -73.61 0 0z"/>
   <polygon class="fil0" points="880.48,242.35 880.48,192.34 886.89,192.34 886.89,212.93 911.84,212.93 911.84,192.34 918.24,192.34 918.24,242.35 911.84,242.35 911.84,218.8 886.89,218.8 886.89,242.35 "/>
   <path class="fil0" d="M923.86 242.35l18.52 -50.01 7.03 0 19.66 50.01 -7.27 0 -5.58 -15.16 -20.33 0 -5.24 15.16 -6.77 0 -0.01 0zm13.89 -20.53l16.44 0 -5.03 -13.86c-1.52,-4.22 -2.66,-7.7 -3.46,-10.44 -0.67,3.26 -1.55,6.47 -2.66,9.63l-5.3 14.68 0 0z"/>
   <polygon class="fil0" points="973.88,242.35 973.88,192.34 980.44,192.34 1005.78,231.59 1005.78,192.34 1011.91,192.34 1011.91,242.35 1005.35,242.35 980.01,203.09 980.01,242.35 "/>
   <path class="fil0" d="M1022.68 242.35l0 -50.01 16.63 0c3.75,0 6.62,0.23 8.6,0.71 2.76,0.66 5.12,1.87 7.08,3.58 2.55,2.24 4.45,5.07 5.71,8.55 1.28,3.47 1.9,7.43 1.9,11.89 0,3.8 -0.43,7.17 -1.28,10.09 -0.86,2.93 -1.95,5.36 -3.29,7.29 -1.35,1.92 -2.81,3.43 -4.4,4.52 -1.58,1.11 -3.51,1.95 -5.75,2.52 -2.26,0.57 -4.84,0.85 -7.76,0.85l-17.42 0 -0.03 0zm6.4 -5.87l10.29 0c3.18,0 5.68,-0.3 7.48,-0.92 1.81,-0.62 3.25,-1.47 4.33,-2.59 1.51,-1.58 2.68,-3.69 3.53,-6.34 0.85,-2.66 1.28,-5.87 1.28,-9.66 0,-5.24 -0.83,-9.26 -2.49,-12.08 -1.66,-2.82 -3.67,-4.7 -6.04,-5.66 -1.7,-0.69 -4.46,-1.03 -8.25,-1.03l-10.13 0 0 38.29 0 -0.02z"/>
   <path class="fil0" d="M1124.44 224.71l6.4 1.68c-1.34,5.44 -3.74,9.56 -7.21,12.43 -3.47,2.85 -7.73,4.28 -12.74,4.28 -5.19,0 -9.42,-1.1 -12.68,-3.29 -3.26,-2.19 -5.73,-5.36 -7.43,-9.53 -1.69,-4.17 -2.55,-8.63 -2.55,-13.4 0,-5.21 0.96,-9.75 2.88,-13.62 1.93,-3.88 4.65,-6.82 8.19,-8.83 3.54,-2.01 7.44,-3.01 11.69,-3.01 4.83,0 8.89,1.27 12.16,3.82 3.29,2.55 5.58,6.12 6.88,10.74l-6.27 1.54c-1.11,-3.64 -2.74,-6.29 -4.86,-7.94 -2.12,-1.67 -4.8,-2.49 -8.02,-2.49 -3.69,0 -6.79,0.92 -9.28,2.76 -2.49,1.84 -4.23,4.32 -5.24,7.42 -1.01,3.12 -1.52,6.32 -1.52,9.61 0,4.24 0.6,7.96 1.79,11.13 1.19,3.18 3.04,5.54 5.57,7.12 2.51,1.58 5.24,2.35 8.17,2.35 3.57,0 6.58,-1.07 9.05,-3.2 2.48,-2.15 4.15,-5.31 5.03,-9.53l0 -0.01z"/>
   <path class="fil0" d="M1138.84 242.35l0 -50.01 21.4 0c4.3,0 7.58,0.46 9.81,1.35 2.23,0.9 4.02,2.48 5.36,4.75 1.34,2.28 2,4.79 2,7.54 0,3.55 -1.12,6.55 -3.32,8.97 -2.22,2.44 -5.63,3.96 -10.27,4.64 1.69,0.84 2.98,1.68 3.85,2.49 1.87,1.77 3.63,3.99 5.29,6.66l8.35 13.62 -7.98 0 -6.38 -10.41c-1.85,-3.01 -3.4,-5.31 -4.6,-6.9 -1.21,-1.59 -2.29,-2.71 -3.25,-3.34 -0.95,-0.62 -1.93,-1.07 -2.91,-1.33 -0.72,-0.15 -1.9,-0.23 -3.55,-0.23l-7.4 0 0 22.21 -6.4 0 0 0zm6.4 -27.94l13.71 0c2.92,0 5.19,-0.32 6.83,-0.94 1.64,-0.62 2.88,-1.61 3.73,-3 0.86,-1.37 1.28,-2.86 1.28,-4.49 0,-2.36 -0.82,-4.32 -2.48,-5.85 -1.65,-1.52 -4.25,-2.28 -7.82,-2.28l-15.26 0 0 16.56 0.01 0z"/>
   <path class="fil0" d="M1182.24 242.35l18.52 -50.01 7.03 0 19.65 50.01 -7.27 0 -5.58 -15.16 -20.32 0 -5.24 15.16 -6.77 0 -0.01 0zm13.89 -20.53l16.44 0 -5.03 -13.86c-1.52,-4.22 -2.66,-7.7 -3.46,-10.44 -0.66,3.26 -1.55,6.47 -2.66,9.63l-5.3 14.68 0 0z"/>
   <polygon class="fil0" points="1232.83,242.35 1232.83,192.34 1265.41,192.34 1265.41,198.19 1239.25,198.19 1239.25,213.77 1261.9,213.77 1261.9,219.64 1239.25,219.64 1239.25,242.35 "/>
   <polygon class="fil0" points="1285.86,242.35 1285.86,198.19 1269.96,198.19 1269.96,192.34 1308.18,192.34 1308.18,198.19 1292.28,198.19 1292.28,242.35 "/>
  </g>
 </g>
</svg>
